<mxfile host="app.diagrams.net" modified="2023-05-19T02:28:16.710Z" agent="Mozilla/5.0 (Windows NT 10.0; Win64; x64) AppleWebKit/537.36 (KHTML, like Gecko) Chrome/113.0.0.0 Safari/537.36" etag="1_7vdt5FDYVogFk0OI74" version="21.3.2" type="device">
  <diagram id="C5RBs43oDa-KdzZeNtuy" name="Page-1">
    <mxGraphModel dx="1356" dy="747" grid="0" gridSize="10" guides="1" tooltips="1" connect="1" arrows="1" fold="1" page="1" pageScale="1" pageWidth="827" pageHeight="1169" math="0" shadow="0">
      <root>
        <mxCell id="WIyWlLk6GJQsqaUBKTNV-0" />
        <mxCell id="WIyWlLk6GJQsqaUBKTNV-1" parent="WIyWlLk6GJQsqaUBKTNV-0" />
        <mxCell id="WIyWlLk6GJQsqaUBKTNV-2" value="" style="rounded=0;html=1;jettySize=auto;orthogonalLoop=1;fontSize=11;endArrow=block;endFill=0;endSize=8;strokeWidth=1;shadow=0;labelBackgroundColor=none;edgeStyle=orthogonalEdgeStyle;" parent="WIyWlLk6GJQsqaUBKTNV-1" source="WIyWlLk6GJQsqaUBKTNV-3" target="WIyWlLk6GJQsqaUBKTNV-6" edge="1">
          <mxGeometry relative="1" as="geometry" />
        </mxCell>
        <mxCell id="WIyWlLk6GJQsqaUBKTNV-3" value="PR Created / Changes Pushed" style="rounded=1;whiteSpace=wrap;html=1;fontSize=12;glass=0;strokeWidth=1;shadow=0;" parent="WIyWlLk6GJQsqaUBKTNV-1" vertex="1">
          <mxGeometry x="118.5" y="102" width="120" height="40" as="geometry" />
        </mxCell>
        <mxCell id="WIyWlLk6GJQsqaUBKTNV-4" value="Yes" style="rounded=0;html=1;jettySize=auto;orthogonalLoop=1;fontSize=11;endArrow=block;endFill=0;endSize=8;strokeWidth=1;shadow=0;labelBackgroundColor=none;edgeStyle=orthogonalEdgeStyle;" parent="WIyWlLk6GJQsqaUBKTNV-1" source="WIyWlLk6GJQsqaUBKTNV-6" target="WIyWlLk6GJQsqaUBKTNV-10" edge="1">
          <mxGeometry y="20" relative="1" as="geometry">
            <mxPoint as="offset" />
          </mxGeometry>
        </mxCell>
        <mxCell id="WIyWlLk6GJQsqaUBKTNV-5" value="No" style="edgeStyle=orthogonalEdgeStyle;rounded=0;html=1;jettySize=auto;orthogonalLoop=1;fontSize=11;endArrow=block;endFill=0;endSize=8;strokeWidth=1;shadow=0;labelBackgroundColor=none;entryX=0;entryY=0.5;entryDx=0;entryDy=0;" parent="WIyWlLk6GJQsqaUBKTNV-1" source="WIyWlLk6GJQsqaUBKTNV-6" target="WIyWlLk6GJQsqaUBKTNV-7" edge="1">
          <mxGeometry y="10" relative="1" as="geometry">
            <mxPoint as="offset" />
            <mxPoint x="353.5" y="292" as="targetPoint" />
          </mxGeometry>
        </mxCell>
        <mxCell id="WIyWlLk6GJQsqaUBKTNV-6" value="Is PR approved?" style="rhombus;whiteSpace=wrap;html=1;shadow=0;fontFamily=Helvetica;fontSize=12;align=center;strokeWidth=1;spacing=6;spacingTop=-4;" parent="WIyWlLk6GJQsqaUBKTNV-1" vertex="1">
          <mxGeometry x="103.5" y="222" width="150" height="150" as="geometry" />
        </mxCell>
        <mxCell id="-snQhHzUPbTdje43rqfT-2" style="edgeStyle=orthogonalEdgeStyle;rounded=0;orthogonalLoop=1;jettySize=auto;html=1;" edge="1" parent="WIyWlLk6GJQsqaUBKTNV-1" source="WIyWlLk6GJQsqaUBKTNV-7">
          <mxGeometry relative="1" as="geometry">
            <mxPoint x="661" y="297" as="targetPoint" />
            <Array as="points">
              <mxPoint x="641" y="297" />
              <mxPoint x="641" y="297" />
            </Array>
          </mxGeometry>
        </mxCell>
        <mxCell id="WIyWlLk6GJQsqaUBKTNV-7" value="Check the comments" style="rounded=1;whiteSpace=wrap;html=1;fontSize=12;glass=0;strokeWidth=1;shadow=0;" parent="WIyWlLk6GJQsqaUBKTNV-1" vertex="1">
          <mxGeometry x="403.5" y="277" width="180" height="40" as="geometry" />
        </mxCell>
        <mxCell id="WIyWlLk6GJQsqaUBKTNV-8" value="No" style="rounded=0;html=1;jettySize=auto;orthogonalLoop=1;fontSize=11;endArrow=block;endFill=0;endSize=8;strokeWidth=1;shadow=0;labelBackgroundColor=none;edgeStyle=orthogonalEdgeStyle;" parent="WIyWlLk6GJQsqaUBKTNV-1" source="WIyWlLk6GJQsqaUBKTNV-10" target="WIyWlLk6GJQsqaUBKTNV-11" edge="1">
          <mxGeometry x="0.3333" y="20" relative="1" as="geometry">
            <mxPoint as="offset" />
            <Array as="points">
              <mxPoint x="314" y="741" />
              <mxPoint x="314" y="741" />
            </Array>
          </mxGeometry>
        </mxCell>
        <mxCell id="WIyWlLk6GJQsqaUBKTNV-9" value="Yes" style="edgeStyle=orthogonalEdgeStyle;rounded=0;html=1;jettySize=auto;orthogonalLoop=1;fontSize=11;endArrow=block;endFill=0;endSize=8;strokeWidth=1;shadow=0;labelBackgroundColor=none;" parent="WIyWlLk6GJQsqaUBKTNV-1" source="WIyWlLk6GJQsqaUBKTNV-10" target="WIyWlLk6GJQsqaUBKTNV-12" edge="1">
          <mxGeometry y="10" relative="1" as="geometry">
            <mxPoint as="offset" />
          </mxGeometry>
        </mxCell>
        <mxCell id="WIyWlLk6GJQsqaUBKTNV-10" value="Is the PR already merged?" style="rhombus;whiteSpace=wrap;html=1;shadow=0;fontFamily=Helvetica;fontSize=12;align=center;strokeWidth=1;spacing=6;spacingTop=-4;" parent="WIyWlLk6GJQsqaUBKTNV-1" vertex="1">
          <mxGeometry x="206" y="472" width="215" height="210" as="geometry" />
        </mxCell>
        <mxCell id="-snQhHzUPbTdje43rqfT-7" style="edgeStyle=orthogonalEdgeStyle;rounded=0;orthogonalLoop=1;jettySize=auto;html=1;entryX=0;entryY=0.5;entryDx=0;entryDy=0;" edge="1" parent="WIyWlLk6GJQsqaUBKTNV-1" source="WIyWlLk6GJQsqaUBKTNV-11" target="WIyWlLk6GJQsqaUBKTNV-10">
          <mxGeometry relative="1" as="geometry">
            <Array as="points">
              <mxPoint x="121" y="577" />
            </Array>
          </mxGeometry>
        </mxCell>
        <mxCell id="WIyWlLk6GJQsqaUBKTNV-11" value="Follow by close to know when it&#39;s merged" style="rounded=1;whiteSpace=wrap;html=1;fontSize=12;glass=0;strokeWidth=1;shadow=0;" parent="WIyWlLk6GJQsqaUBKTNV-1" vertex="1">
          <mxGeometry x="41" y="772" width="410" height="40" as="geometry" />
        </mxCell>
        <mxCell id="WIyWlLk6GJQsqaUBKTNV-12" value="Change the DEV task to Testing" style="rounded=1;whiteSpace=wrap;html=1;fontSize=12;glass=0;strokeWidth=1;shadow=0;" parent="WIyWlLk6GJQsqaUBKTNV-1" vertex="1">
          <mxGeometry x="511" y="557" width="230" height="40" as="geometry" />
        </mxCell>
        <mxCell id="-snQhHzUPbTdje43rqfT-6" style="edgeStyle=orthogonalEdgeStyle;rounded=0;orthogonalLoop=1;jettySize=auto;html=1;entryX=1;entryY=0.5;entryDx=0;entryDy=0;" edge="1" parent="WIyWlLk6GJQsqaUBKTNV-1" target="-snQhHzUPbTdje43rqfT-4">
          <mxGeometry relative="1" as="geometry">
            <mxPoint x="721" y="162" as="sourcePoint" />
            <Array as="points">
              <mxPoint x="721" y="122" />
            </Array>
          </mxGeometry>
        </mxCell>
        <mxCell id="-snQhHzUPbTdje43rqfT-1" value="Provide the fixes needed" style="rounded=1;whiteSpace=wrap;html=1;" vertex="1" parent="WIyWlLk6GJQsqaUBKTNV-1">
          <mxGeometry x="660" y="160" width="120" height="167.5" as="geometry" />
        </mxCell>
        <mxCell id="-snQhHzUPbTdje43rqfT-5" style="edgeStyle=orthogonalEdgeStyle;rounded=0;orthogonalLoop=1;jettySize=auto;html=1;" edge="1" parent="WIyWlLk6GJQsqaUBKTNV-1" source="-snQhHzUPbTdje43rqfT-4" target="WIyWlLk6GJQsqaUBKTNV-3">
          <mxGeometry relative="1" as="geometry" />
        </mxCell>
        <mxCell id="-snQhHzUPbTdje43rqfT-4" value="Push the changes and re-request review" style="rounded=1;whiteSpace=wrap;html=1;" vertex="1" parent="WIyWlLk6GJQsqaUBKTNV-1">
          <mxGeometry x="321" y="97" width="272.5" height="50" as="geometry" />
        </mxCell>
        <mxCell id="-snQhHzUPbTdje43rqfT-8" value="Simplified Workflow" style="text;html=1;strokeColor=none;fillColor=none;align=center;verticalAlign=middle;whiteSpace=wrap;rounded=0;fontSize=21;" vertex="1" parent="WIyWlLk6GJQsqaUBKTNV-1">
          <mxGeometry x="305" y="10" width="217" height="78" as="geometry" />
        </mxCell>
        <mxCell id="-snQhHzUPbTdje43rqfT-9" value="Braking Down Workflow" style="text;html=1;strokeColor=none;fillColor=none;align=center;verticalAlign=middle;whiteSpace=wrap;rounded=0;fontSize=19;" vertex="1" parent="WIyWlLk6GJQsqaUBKTNV-1">
          <mxGeometry x="1087" y="23" width="329" height="74" as="geometry" />
        </mxCell>
        <mxCell id="-snQhHzUPbTdje43rqfT-13" style="edgeStyle=orthogonalEdgeStyle;rounded=0;orthogonalLoop=1;jettySize=auto;html=1;entryX=0;entryY=0.5;entryDx=0;entryDy=0;" edge="1" parent="WIyWlLk6GJQsqaUBKTNV-1" source="-snQhHzUPbTdje43rqfT-10" target="-snQhHzUPbTdje43rqfT-12">
          <mxGeometry relative="1" as="geometry">
            <Array as="points">
              <mxPoint x="866" y="126" />
              <mxPoint x="866" y="257" />
            </Array>
          </mxGeometry>
        </mxCell>
        <mxCell id="-snQhHzUPbTdje43rqfT-10" value="PR Created / Changes Pushed" style="rounded=1;whiteSpace=wrap;html=1;fontSize=18;fontStyle=1" vertex="1" parent="WIyWlLk6GJQsqaUBKTNV-1">
          <mxGeometry x="886" y="103" width="722" height="45" as="geometry" />
        </mxCell>
        <mxCell id="-snQhHzUPbTdje43rqfT-15" value="" style="edgeStyle=orthogonalEdgeStyle;rounded=0;orthogonalLoop=1;jettySize=auto;html=1;exitX=0.5;exitY=1;exitDx=0;exitDy=0;" edge="1" parent="WIyWlLk6GJQsqaUBKTNV-1" source="-snQhHzUPbTdje43rqfT-18" target="-snQhHzUPbTdje43rqfT-14">
          <mxGeometry relative="1" as="geometry" />
        </mxCell>
        <mxCell id="-snQhHzUPbTdje43rqfT-24" value="NO" style="edgeLabel;html=1;align=center;verticalAlign=middle;resizable=0;points=[];fontSize=15;" vertex="1" connectable="0" parent="-snQhHzUPbTdje43rqfT-15">
          <mxGeometry x="-0.6641" y="-1" relative="1" as="geometry">
            <mxPoint x="26" y="-27" as="offset" />
          </mxGeometry>
        </mxCell>
        <mxCell id="-snQhHzUPbTdje43rqfT-19" value="" style="edgeStyle=orthogonalEdgeStyle;rounded=0;orthogonalLoop=1;jettySize=auto;html=1;" edge="1" parent="WIyWlLk6GJQsqaUBKTNV-1" source="-snQhHzUPbTdje43rqfT-12" target="-snQhHzUPbTdje43rqfT-18">
          <mxGeometry relative="1" as="geometry" />
        </mxCell>
        <mxCell id="-snQhHzUPbTdje43rqfT-12" value="Create a &quot;Code Review&quot; task" style="rounded=1;whiteSpace=wrap;html=1;" vertex="1" parent="WIyWlLk6GJQsqaUBKTNV-1">
          <mxGeometry x="923" y="226.5" width="144" height="60" as="geometry" />
        </mxCell>
        <mxCell id="-snQhHzUPbTdje43rqfT-17" value="" style="edgeStyle=orthogonalEdgeStyle;rounded=0;orthogonalLoop=1;jettySize=auto;html=1;" edge="1" parent="WIyWlLk6GJQsqaUBKTNV-1" source="-snQhHzUPbTdje43rqfT-14" target="-snQhHzUPbTdje43rqfT-16">
          <mxGeometry relative="1" as="geometry" />
        </mxCell>
        <mxCell id="-snQhHzUPbTdje43rqfT-14" value="Create a Sub-task for each comment" style="whiteSpace=wrap;html=1;rounded=1;" vertex="1" parent="WIyWlLk6GJQsqaUBKTNV-1">
          <mxGeometry x="894" y="439" width="184" height="60" as="geometry" />
        </mxCell>
        <mxCell id="-snQhHzUPbTdje43rqfT-28" value="" style="edgeStyle=orthogonalEdgeStyle;rounded=0;orthogonalLoop=1;jettySize=auto;html=1;" edge="1" parent="WIyWlLk6GJQsqaUBKTNV-1" source="-snQhHzUPbTdje43rqfT-16" target="-snQhHzUPbTdje43rqfT-27">
          <mxGeometry relative="1" as="geometry">
            <Array as="points">
              <mxPoint x="1488" y="469" />
              <mxPoint x="1488" y="577" />
              <mxPoint x="1004" y="577" />
            </Array>
          </mxGeometry>
        </mxCell>
        <mxCell id="-snQhHzUPbTdje43rqfT-16" value="Investigate the comments if needed" style="whiteSpace=wrap;html=1;rounded=1;" vertex="1" parent="WIyWlLk6GJQsqaUBKTNV-1">
          <mxGeometry x="1179" y="439" width="220" height="60" as="geometry" />
        </mxCell>
        <mxCell id="-snQhHzUPbTdje43rqfT-22" value="" style="edgeStyle=orthogonalEdgeStyle;rounded=0;orthogonalLoop=1;jettySize=auto;html=1;" edge="1" parent="WIyWlLk6GJQsqaUBKTNV-1" source="-snQhHzUPbTdje43rqfT-18" target="-snQhHzUPbTdje43rqfT-21">
          <mxGeometry relative="1" as="geometry">
            <Array as="points">
              <mxPoint x="1573" y="257" />
              <mxPoint x="1573" y="1065" />
            </Array>
          </mxGeometry>
        </mxCell>
        <mxCell id="-snQhHzUPbTdje43rqfT-23" value="YES" style="edgeLabel;html=1;align=center;verticalAlign=middle;resizable=0;points=[];fontSize=15;" vertex="1" connectable="0" parent="-snQhHzUPbTdje43rqfT-22">
          <mxGeometry x="-0.9373" y="4" relative="1" as="geometry">
            <mxPoint y="4" as="offset" />
          </mxGeometry>
        </mxCell>
        <mxCell id="-snQhHzUPbTdje43rqfT-18" value="Is PR approved?" style="rhombus;whiteSpace=wrap;html=1;rounded=1;" vertex="1" parent="WIyWlLk6GJQsqaUBKTNV-1">
          <mxGeometry x="1241" y="183" width="147" height="147" as="geometry" />
        </mxCell>
        <mxCell id="-snQhHzUPbTdje43rqfT-21" value="Merged" style="whiteSpace=wrap;html=1;rounded=1;fontSize=18;fontStyle=1" vertex="1" parent="WIyWlLk6GJQsqaUBKTNV-1">
          <mxGeometry x="879" y="1035" width="624" height="60" as="geometry" />
        </mxCell>
        <mxCell id="-snQhHzUPbTdje43rqfT-30" value="" style="edgeStyle=orthogonalEdgeStyle;rounded=0;orthogonalLoop=1;jettySize=auto;html=1;" edge="1" parent="WIyWlLk6GJQsqaUBKTNV-1" source="-snQhHzUPbTdje43rqfT-27" target="-snQhHzUPbTdje43rqfT-29">
          <mxGeometry relative="1" as="geometry" />
        </mxCell>
        <mxCell id="-snQhHzUPbTdje43rqfT-27" value="Implement the solution" style="whiteSpace=wrap;html=1;rounded=1;" vertex="1" parent="WIyWlLk6GJQsqaUBKTNV-1">
          <mxGeometry x="907" y="657" width="194" height="60" as="geometry" />
        </mxCell>
        <mxCell id="-snQhHzUPbTdje43rqfT-31" style="edgeStyle=orthogonalEdgeStyle;rounded=0;orthogonalLoop=1;jettySize=auto;html=1;entryX=0;entryY=0.5;entryDx=0;entryDy=0;" edge="1" parent="WIyWlLk6GJQsqaUBKTNV-1" source="-snQhHzUPbTdje43rqfT-29" target="-snQhHzUPbTdje43rqfT-18">
          <mxGeometry relative="1" as="geometry">
            <Array as="points">
              <mxPoint x="1502" y="689" />
              <mxPoint x="1502" y="793" />
              <mxPoint x="860" y="793" />
              <mxPoint x="860" y="325" />
              <mxPoint x="1159" y="325" />
              <mxPoint x="1159" y="257" />
            </Array>
          </mxGeometry>
        </mxCell>
        <mxCell id="-snQhHzUPbTdje43rqfT-29" value="Push the changes to the PR" style="whiteSpace=wrap;html=1;rounded=1;" vertex="1" parent="WIyWlLk6GJQsqaUBKTNV-1">
          <mxGeometry x="1216" y="657" width="212" height="60" as="geometry" />
        </mxCell>
      </root>
    </mxGraphModel>
  </diagram>
</mxfile>
